<svg viewBox="0 0 83.333 83.333">
  <g transform="scale(.65104)">
    <circle xmlns="http://www.w3.org/2000/svg" cx="64" cy="35.14" r="8"/>
    <path xmlns="http://www.w3.org/2000/svg" d="M67 50h-6a2 2 0 0 0 0 4h6a2 2 0 0 0 0-4M31 15v12a2 2 0 0 0 4 0V15a2 2 0 0 0-4 0m-6-2a2 2 0 0 0-2 2v19a2 2 0 0 0 4 0V15a2 2 0 0 0-2-2m72 14V15a2 2 0 0 0-4 0v12a2 2 0 0 0 4 0m8 7V15a2 2 0 0 0-4 0v19a2 2 0 0 0 4 0M48.081 93.467A5.98 5.98 0 0 0 46 98a2 2 0 0 0 4 0 2 2 0 0 1 4 0 2 2 0 0 0 4 0 6.01 6.01 0 0 0-4.117-5.693 21.8 21.8 0 0 0 4.11-12.416 2 2 0 1 0-3.994.218c.003.062.273 6.303-5.47 12.536a2 2 0 0 0-.448.822M74.002 80.1a2 2 0 0 0-3.995-.209 21.8 21.8 0 0 0 4.11 12.416A6.01 6.01 0 0 0 70 98a2 2 0 0 0 4 0 2 2 0 0 1 4 0 2 2 0 0 0 4 0 5.98 5.98 0 0 0-2.081-4.533 2 2 0 0 0-.448-.822c-5.665-6.148-5.481-12.262-5.469-12.545m-43.78 28.986a2 2 0 0 0 2.828 2.828 7.01 7.01 0 0 1 9.9 0 2 2 0 0 0 2.828-2.828 11.01 11.01 0 0 0-15.556 0m56.828 2.828a7.01 7.01 0 0 1 9.9 0 2 2 0 0 0 2.828-2.828 11.01 11.01 0 0 0-15.556 0 2 2 0 0 0 2.828 2.828m-30.608-6.66a2 2 0 0 0 2.812.304 8.03 8.03 0 0 1 9.492 0 2 2 0 1 0 2.508-3.116 11.944 11.944 0 0 0-14.508 0 2 2 0 0 0-.304 2.812"/>
    <path xmlns="http://www.w3.org/2000/svg" d="M79.713 68.096a2 2 0 0 0 1.674.904h.002a2 2 0 0 0 1.673-.908c8.595-13.194.777-25.544-2.066-29.29A50.22 50.22 0 0 0 64.168.072a.233.233 0 0 0-.336 0 50.22 50.22 0 0 0-16.828 38.73c-2.843 3.746-10.66 16.096-2.066 29.29A2 2 0 0 0 46.61 69h.002a2 2 0 0 0 1.674-.904l3.6-5.5A90 90 0 0 0 53.276 66H56v6a2 2 0 0 0 2 2h12a2 2 0 0 0 2-2v-6h2.723c.498-1.15.958-2.283 1.39-3.403ZM68 70h-8v-4h8Zm4.054-8H55.946C43.558 30.838 57.775 11.786 64 5.38c6.225 6.406 20.442 25.458 8.054 56.62M95.5 92a13.9 13.9 0 0 0-6.229 1.47 14.04 14.04 0 0 0-11.204-11.232 14.3 14.3 0 0 0 1.491 4.63A10.01 10.01 0 0 1 85.5 96c0 .318-.02.631-.048.942a2 2 0 0 0 3.337 1.663A9.994 9.994 0 1 1 95.5 116h-61a10 10 0 1 1 5.013-18.642 2 2 0 0 0 3.005-1.667 9.94 9.94 0 0 1 5.928-8.835 14.4 14.4 0 0 0 1.486-4.62 13.9 13.9 0 0 0-11.036 10.478A13.997 13.997 0 1 0 34.5 120h61a14 14 0 0 0 0-28"/>
  </g>
</svg>
